# Blender v2.83.5 OBJ File: 'name.blend'
# www.blender.org
mtllib arrow.mtl
o Plane.002
v 0.062888 0.689315 0.142543
v 0.062888 0.694337 -0.159848
v 0.062888 -0.055121 -0.410404
v 0.062888 0.037522 -0.410404
v 0.062888 -0.373880 0.041746
v 0.062888 -0.373880 -0.059051
v 0.062888 -0.282433 -0.159848
v 0.062888 -0.236568 -0.210404
v 0.062888 -0.190453 -0.159848
v 0.062888 -0.144454 -0.210404
v 0.062888 -0.075422 0.389596
v 0.062888 0.011985 0.389596
v 0.062888 -0.247023 0.189596
v 0.062888 -0.287395 0.142543
v 0.062888 -0.160027 0.189596
v 0.062888 -0.200496 0.142543
v 0.062888 -0.329314 -0.007234
v 0.062888 0.011494 0.189596
v 0.062888 0.025267 -0.210404
v 0.062888 -0.026357 -0.210404
v 0.064340 -0.023734 -0.340101
v 0.062888 -0.025652 -0.159848
v 0.062888 0.026522 -0.159848
v 0.062888 -0.049147 0.142543
v 0.062888 0.012617 0.142543
v 0.062888 -0.048469 0.189596
v 0.061191 -0.041014 0.335576
v 0.062888 0.700199 -0.210404
v 0.062888 0.692487 0.189596
v 0.062888 0.762553 0.142543
v 0.062888 0.764139 0.189596
v 0.062888 0.765064 -0.159848
v 0.062888 0.767994 -0.210404
v -0.054484 -0.055127 -0.410365
v -0.054484 0.037516 -0.410365
v -0.054484 -0.373886 0.041785
v -0.054484 -0.373886 -0.059012
v -0.054484 0.689309 0.142582
v -0.054484 0.694331 -0.159809
v -0.054484 -0.282439 -0.159810
v -0.054484 -0.236574 -0.210365
v -0.054484 -0.190459 -0.159810
v -0.054484 -0.144460 -0.210365
v -0.054484 -0.329320 -0.007195
v -0.053032 -0.023740 -0.340062
v -0.054484 -0.075428 0.389635
v -0.054484 0.011979 0.389635
v -0.054484 0.012611 0.142582
v -0.054484 0.026515 -0.159809
v -0.054484 -0.247029 0.189635
v -0.054484 -0.287401 0.142582
v -0.054484 -0.160034 0.189635
v -0.054484 -0.200503 0.142582
v -0.056181 -0.041021 0.335615
v -0.054484 -0.048475 0.189635
v -0.054484 0.011488 0.189635
v -0.054484 -0.026363 -0.210365
v -0.054484 0.025260 -0.210365
v -0.054484 0.692481 0.189635
v -0.054484 0.700192 -0.210365
v -0.054484 -0.025659 -0.159810
v -0.054484 -0.049154 0.142582
v -0.054484 0.762546 0.142582
v -0.054484 0.764132 0.189635
v -0.054484 0.765057 -0.159809
v -0.054484 0.767988 -0.210365
vt 0.908287 0.533333
vt 0.885287 0.600000
vt 0.931344 0.600000
vt 0.954277 0.533333
vt 0.977717 0.499687
vt 1.000000 0.511111
vt 1.000000 0.488889
vt 0.244694 0.533333
vt 0.131220 0.600000
vt 0.238944 0.600000
vt 0.465892 0.533333
vt 0.245950 0.466667
vt 0.468402 0.466667
vt 0.617142 0.650000
vt 0.348998 0.700000
vt 0.674499 0.700000
vt 0.893074 0.400000
vt 0.913308 0.466667
vt 0.956758 0.466667
vt 0.936572 0.400000
vt 0.348998 0.300000
vt 0.621036 0.350000
vt 0.674499 0.300000
vt 0.132194 0.400000
vt 0.240891 0.400000
vt 0.616704 0.466667
vt 0.458285 0.400000
vt 0.669840 0.600000
vt 0.454392 0.600000
vt 0.613357 0.533333
vt 0.760822 0.533333
vt 0.675680 0.400000
vt 0.765006 0.466667
vt 0.908287 0.533333
vt 0.954277 0.533333
vt 0.931344 0.600000
vt 0.885287 0.600000
vt 0.977717 0.499687
vt 1.000000 0.488889
vt 1.000000 0.511111
vt 0.244694 0.533333
vt 0.465892 0.533333
vt 0.238944 0.600000
vt 0.131220 0.600000
vt 0.245950 0.466667
vt 0.468402 0.466667
vt 0.674499 0.700000
vt 0.348998 0.700000
vt 0.617142 0.650000
vt 0.893074 0.400000
vt 0.936572 0.400000
vt 0.956758 0.466667
vt 0.913308 0.466667
vt 0.348998 0.300000
vt 0.674499 0.300000
vt 0.621036 0.350000
vt 0.132194 0.400000
vt 0.240891 0.400000
vt 0.458285 0.400000
vt 0.616704 0.466667
vt 0.454392 0.600000
vt 0.669840 0.600000
vt 0.613357 0.533333
vt 0.760822 0.533333
vt 0.675680 0.400000
vt 0.765006 0.466667
vn -1.0000 -0.0000 -0.0000
vn -0.9999 0.0077 0.0070
vn -0.9999 -0.0101 0.0087
vn -0.9999 -0.0161 -0.0051
vn -0.9998 0.0176 -0.0053
vn 1.0000 0.0000 0.0000
vn 0.9999 -0.0077 -0.0070
vn 0.9999 0.0101 -0.0087
vn 0.9999 0.0161 0.0051
vn 0.9998 -0.0176 0.0053
vn -0.0002 -0.7320 -0.6813
vn -0.0003 -0.0000 -1.0000
vn 0.0003 0.0000 1.0000
vn -0.0001 0.9987 -0.0510
vn 0.0000 -0.9981 -0.0612
vn 0.0001 -1.0000 0.0025
vn -0.0003 0.7589 -0.6512
vn -0.0001 0.9999 -0.0144
vn -0.0001 1.0000 0.0000
vn -0.0000 0.9999 0.0166
vn 0.0002 0.7406 0.6719
vn -0.0000 0.9998 0.0202
vn 0.0001 -1.0000 -0.0083
vn 0.0003 -0.7582 0.6521
vn 0.0000 -0.9983 -0.0579
vn -0.0001 0.9999 -0.0139
vn 0.0001 -0.9994 0.0337
vn -0.0002 -0.7396 -0.6730
vn 0.0003 -0.7751 0.6319
g Plane.002_Plane.002_Material.006
usemtl Material.006
s off
f 9/1/1 10/2/1 8/3/1 7/4/1
f 17/5/1 6/6/1 5/7/1
f 32/8/1 33/9/1 28/10/1 2/11/1
f 30/12/1 32/8/1 2/11/1 1/13/1
f 8/3/2 10/2/2 21/14/2 4/15/2 3/16/2
f 15/17/1 16/18/1 14/19/1 13/20/1
f 12/21/3 27/22/3 15/17/3 13/20/3 11/23/3
f 16/18/1 17/5/1 5/7/1 14/19/1
f 31/24/1 30/12/1 1/13/1 29/25/1
f 29/25/1 1/13/1 25/26/1 18/27/1
f 9/1/1 7/4/1 6/6/1 17/5/1
f 21/14/4 20/28/4 19/29/4 4/15/4
f 2/11/1 28/10/1 19/29/1 23/30/1
f 19/29/1 20/28/1 22/31/1 23/30/1
f 12/21/5 18/27/5 26/32/5 27/22/5
f 18/27/1 25/26/1 24/33/1 26/32/1
f 42/34/6 40/35/6 41/36/6 43/37/6
f 44/38/6 36/39/6 37/40/6
f 65/41/6 39/42/6 60/43/6 66/44/6
f 63/45/6 38/46/6 39/42/6 65/41/6
f 41/36/7 34/47/7 35/48/7 45/49/7 43/37/7
f 52/50/6 50/51/6 51/52/6 53/53/6
f 47/54/8 46/55/8 50/51/8 52/50/8 54/56/8
f 53/53/6 51/52/6 36/39/6 44/38/6
f 64/57/6 59/58/6 38/46/6 63/45/6
f 59/58/6 56/59/6 48/60/6 38/46/6
f 42/34/6 44/38/6 37/40/6 40/35/6
f 45/49/9 35/48/9 58/61/9 57/62/9
f 39/42/6 49/63/6 58/61/6 60/43/6
f 58/61/6 49/63/6 61/64/6 57/62/6
f 47/54/10 54/56/10 55/65/10 56/59/10
f 56/59/6 55/65/6 62/66/6 48/60/6
f 21/14/11 10/2/11 43/37/11 45/49/11
f 12/21/12 11/23/12 46/55/12 47/54/12
f 25/26/13 1/13/13 38/46/13 48/60/13
f 27/22/14 26/32/14 55/65/14 54/56/14
f 4/15/15 19/29/15 58/61/15 35/48/15
f 2/11/12 23/30/12 49/63/12 39/42/12
f 3/16/13 4/15/13 35/48/13 34/47/13
f 18/27/16 12/21/16 47/54/16 56/59/16
f 13/20/17 14/19/17 51/52/17 50/51/17
f 26/32/18 24/33/18 62/66/18 55/65/18
f 5/7/19 6/6/19 37/40/19 36/39/19
f 29/25/12 18/27/12 56/59/12 59/58/12
f 11/23/17 13/20/17 50/51/17 46/55/17
f 1/13/20 2/11/20 39/42/20 38/46/20
f 14/19/17 5/7/17 36/39/17 51/52/17
f 31/24/12 29/25/12 59/58/12 64/57/12
f 7/4/21 8/3/21 41/36/21 40/35/21
f 20/28/22 21/14/22 45/49/22 57/62/22
f 6/6/21 7/4/21 40/35/21 37/40/21
f 19/29/13 28/10/13 60/43/13 58/61/13
f 28/10/13 33/9/13 66/44/13 60/43/13
f 8/3/21 3/16/21 34/47/21 41/36/21
f 23/30/12 22/31/12 61/64/12 49/63/12
f 32/8/23 30/12/23 63/45/23 65/41/23
f 17/5/24 16/18/24 53/53/24 44/38/24
f 33/9/25 32/8/25 65/41/25 66/44/25
f 22/31/26 20/28/26 57/62/26 61/64/26
f 16/18/24 15/17/24 52/50/24 53/53/24
f 30/12/27 31/24/27 64/57/27 63/45/27
f 10/2/28 9/1/28 42/34/28 43/37/28
f 15/17/29 27/22/29 54/56/29 52/50/29
f 9/1/28 17/5/28 44/38/28 42/34/28
f 24/33/13 25/26/13 48/60/13 62/66/13
