# Blender v2.83.5 OBJ File: 'newpc.blend'
# www.blender.org
mtllib newpc.mtl
o Cube_Cube.001
v -0.009955 -0.328153 0.544354
v -0.009955 0.584040 0.544354
v -0.009955 -0.328153 -0.544354
v -0.009955 0.584040 -0.544354
v 0.027427 -0.328153 0.729247
v 0.027427 0.584040 0.729247
v 0.027427 -0.328153 -0.729247
v 0.027427 0.584040 -0.729247
v 0.027427 0.560841 -0.701559
v 0.027427 -0.304953 -0.701559
v 0.027427 -0.304953 0.701559
v 0.027427 0.560841 0.701559
v 0.027427 0.584040 -0.729247
v 0.027427 -0.328153 -0.729247
v 0.027427 -0.328153 0.729247
v 0.027427 0.584040 0.729247
v 0.015853 0.560841 -0.701559
v 0.015853 -0.304953 -0.701559
v 0.015853 -0.304953 0.701559
v 0.015853 0.560841 0.701559
vt 0.375000 0.000000
vt 0.625000 0.000000
vt 0.625000 0.250000
vt 0.375000 0.250000
vt 0.625000 0.500000
vt 0.375000 0.500000
vt 0.625000 0.750000
vt 0.625000 0.750000
vt 0.625000 0.500000
vt 0.375000 0.750000
vt 0.625000 1.000000
vt 0.375000 1.000000
vt 0.125000 0.500000
vt 0.125000 0.750000
vt 0.875000 0.500000
vt 0.875000 0.750000
vt 0.618642 0.745254
vt 0.381358 0.745254
vt 0.381358 0.745254
vt 0.618642 0.745254
vt nan nan
vt nan nan
vt nan nan
vt nan nan
vt nan nan
vt nan nan
vt nan nan
vt nan nan
vt 0.375000 0.500000
vt 0.375000 0.750000
vt 0.618642 0.504746
vt 0.381358 0.504746
vt 0.381358 0.504746
vt 0.618642 0.504746
vn -1.0000 0.0000 0.0000
vn -0.9802 0.0000 -0.1982
vn 0.0000 0.0000 1.0000
vn -0.9802 0.0000 0.1982
vn 0.0000 -1.0000 0.0000
vn 0.0000 1.0000 0.0000
vn 0.0000 0.0000 -1.0000
vn 1.0000 0.0000 0.0000
g Cube_Cube.001_Material.001
usemtl Material.001
s off
f 1/1/1 2/2/1 4/3/1 3/4/1
f 3/4/2 4/3/2 8/5/2 7/6/2
f 8/5/3 6/7/3 16/8/3 13/9/3
f 5/10/4 6/7/4 2/11/4 1/12/4
f 3/13/5 7/6/5 5/10/5 1/14/5
f 8/5/6 4/15/6 2/16/6 6/7/6
f 12/17/7 11/18/7 19/19/7 20/20/7
f 7/21/3 8/22/3 13/23/3 14/24/3
f 6/25/3 5/26/3 15/27/3 16/28/3
f 5/10/3 7/6/3 14/29/3 15/30/3
f 9/31/8 10/32/8 14/29/8 13/9/8
f 10/32/8 11/18/8 15/30/8 14/29/8
f 12/17/8 9/31/8 13/9/8 16/8/8
f 11/18/8 12/17/8 16/8/8 15/30/8
f 11/18/6 10/32/6 18/33/6 19/19/6
f 9/31/5 12/17/5 20/20/5 17/34/5
f 10/32/3 9/31/3 17/34/3 18/33/3
g Cube_Cube.001_Material.002
usemtl Material.002
f 18/33/8 17/34/8 20/20/8 19/19/8
o Cube.001_Cube.002
v 0.014457 -0.311417 0.059189
v -0.067298 -0.734112 0.065031
v 0.022857 -0.314731 -0.063048
v -0.058898 -0.737426 -0.057206
v -0.012364 -0.306257 0.057206
v -0.094119 -0.728952 0.063048
v -0.003964 -0.309571 -0.065031
v -0.085719 -0.732266 -0.059189
v -0.067298 -0.734112 0.065031
v -0.058898 -0.737426 -0.057206
v -0.085719 -0.732266 -0.059189
v -0.094119 -0.728952 0.063048
v -0.039639 -0.734112 0.194075
v -0.006013 -0.737426 -0.182130
v -0.113378 -0.732266 -0.188233
v -0.147004 -0.728952 0.187972
vt 0.375000 0.000000
vt 0.625000 0.000000
vt 0.625000 0.250000
vt 0.375000 0.250000
vt 0.625000 0.500000
vt 0.375000 0.500000
vt 0.625000 0.750000
vt 0.375000 0.750000
vt 0.625000 1.000000
vt 0.375000 1.000000
vt 0.125000 0.500000
vt 0.125000 0.750000
vt 0.625000 0.500000
vt 0.625000 0.750000
vt 0.625000 0.500000
vt 0.625000 0.750000
vt 0.625000 0.000000
vt 0.625000 0.250000
vt 0.625000 1.000000
vt 0.875000 0.500000
vt 0.875000 0.750000
vt 0.625000 0.000000
vt 0.625000 0.250000
vt 0.625000 1.000000
vn 0.9794 -0.1884 0.0724
vn 0.0685 -0.0270 -0.9973
vn -0.9794 0.1884 -0.0724
vn -0.0685 0.0270 0.9973
vn 0.1899 0.9817 -0.0136
vn 0.0000 0.0000 1.0000
vn 0.0007 0.9999 -0.0132
vn -0.0483 -0.9988 0.0045
vn 0.0762 0.9971 0.0076
g Cube.001_Cube.002_Material.003
usemtl Material.003
s off
f 21/35/9 22/36/9 24/37/9 23/38/9
f 23/38/10 24/37/10 28/39/10 27/40/10
f 27/40/11 28/39/11 26/41/11 25/42/11
f 25/42/12 26/41/12 22/43/12 21/44/12
f 23/45/13 27/40/13 25/42/13 21/46/13
f 26/41/14 28/39/14 31/47/14 32/48/14
f 32/48/15 31/47/15 35/49/15 36/50/15
f 24/37/14 22/36/14 29/51/14 30/52/14
f 22/43/14 26/41/14 32/48/14 29/53/14
f 28/39/14 24/37/14 30/52/14 31/47/14
f 35/49/16 34/54/16 33/55/16 36/50/16
f 30/52/15 29/51/15 33/56/15 34/57/15
f 29/53/17 32/48/17 36/50/17 33/58/17
f 31/47/17 30/52/17 34/57/17 35/49/17
